<?xml version="1.0"?>
<svg xmlns="http://www.w3.org/2000/svg" viewBox="0 0 512 512" width="512" height="512"><g id="Fill_out_line" data-name="Fill out line"><path d="M136,352l-.81775-2.58953A289.68922,289.68922,0,0,1,187.21778,78.73382l.00015-.00018A64,64,0,0,1,282.006,74.006L413.994,205.994a64,64,0,0,1-4.72761,94.7881l-.00018.00015a289.68922,289.68922,0,0,1-270.67665,52.03553Z" style="fill:#e44b4d"/><path d="M288,80l.98354-4.91771A73.15115,73.15115,0,0,1,328,24l0,0,3.79992,9.49981a73.1511,73.1511,0,0,1-2.49076,59.88186L320,112Z" style="fill:#4ba477"/><path d="M400,192l7.76291-1.29382A59.10091,59.10091,0,0,0,456,144v0H432.37a59.10085,59.10085,0,0,0-30.40717,8.4223L376,168Z" style="fill:#4ba477"/><path d="M336,128l0,0a101.015,101.015,0,0,1,70.01286-47.66877L408,80l-.33119,1.98712A101.015,101.015,0,0,1,360,152l0,0Z" style="fill:#4ba477"/><path d="M208,104V99.3137A27.31368,27.31368,0,0,1,216,80l0,0a11.3137,11.3137,0,0,1,16,0l0,0a11.3137,11.3137,0,0,1,0,16l0,0a27.31368,27.31368,0,0,1-19.31369,8Z" style="fill:#e7999b"/><path d="M248,144v-4.6863A27.31368,27.31368,0,0,1,256,120l0,0a11.3137,11.3137,0,0,1,16,0l0,0a11.3137,11.3137,0,0,1,0,16l0,0a27.31368,27.31368,0,0,1-19.31369,8Z" style="fill:#e7999b"/><path d="M296,192v-4.6863A27.31368,27.31368,0,0,1,304,168l0,0a11.3137,11.3137,0,0,1,16,0l0,0a11.3137,11.3137,0,0,1,0,16l0,0a27.31368,27.31368,0,0,1-19.31369,8Z" style="fill:#e7999b"/><path d="M344,240v-4.6863A27.31368,27.31368,0,0,1,352,216l0,0a11.3137,11.3137,0,0,1,16,0l0,0a11.3137,11.3137,0,0,1,0,16l0,0a27.31368,27.31368,0,0,1-19.31369,8Z" style="fill:#e7999b"/><path d="M384,280v-4.6863A27.31368,27.31368,0,0,1,392,256l0,0a11.3137,11.3137,0,0,1,16,0l0,0a11.3137,11.3137,0,0,1,0,16l0,0a27.31368,27.31368,0,0,1-19.31369,8Z" style="fill:#e7999b"/><path d="M184,160v-4.6863A27.31368,27.31368,0,0,1,192,136l0,0a11.3137,11.3137,0,0,1,16,0l0,0a11.3137,11.3137,0,0,1,0,16l0,0a27.31368,27.31368,0,0,1-19.31369,8Z" style="fill:#e7999b"/><path d="M232,208v-4.6863A27.31368,27.31368,0,0,1,240,184l0,0a11.3137,11.3137,0,0,1,16,0l0,0a11.3137,11.3137,0,0,1,0,16l0,0a27.31368,27.31368,0,0,1-19.31369,8Z" style="fill:#e7999b"/><path d="M280,256v-4.6863A27.31368,27.31368,0,0,1,288,232l0,0a11.3137,11.3137,0,0,1,16,0l0,0a11.3137,11.3137,0,0,1,0,16l0,0a27.31368,27.31368,0,0,1-19.31369,8Z" style="fill:#e7999b"/><path d="M328,304v-4.6863A27.31368,27.31368,0,0,1,336,280l0,0a11.3137,11.3137,0,0,1,16,0l0,0a11.3137,11.3137,0,0,1,0,16l0,0a27.31368,27.31368,0,0,1-19.31369,8Z" style="fill:#e7999b"/><path d="M168,224v-4.6863A27.31368,27.31368,0,0,1,176,200l0,0a11.3137,11.3137,0,0,1,16,0l0,0a11.3137,11.3137,0,0,1,0,16l0,0a27.31368,27.31368,0,0,1-19.31369,8Z" style="fill:#e7999b"/><path d="M216,272v-4.6863A27.31368,27.31368,0,0,1,224,248l0,0a11.3137,11.3137,0,0,1,16,0l0,0a11.3137,11.3137,0,0,1,0,16l0,0a27.31368,27.31368,0,0,1-19.31369,8Z" style="fill:#e7999b"/><path d="M264,320v-4.6863A27.31368,27.31368,0,0,1,272,296l0,0a11.3137,11.3137,0,0,1,16,0l0,0a11.3137,11.3137,0,0,1,0,16l0,0a27.31368,27.31368,0,0,1-19.31369,8Z" style="fill:#e7999b"/><path d="M152,288v-4.6863A27.31368,27.31368,0,0,1,160,264l0,0a11.3137,11.3137,0,0,1,16,0l0,0a11.3137,11.3137,0,0,1,0,16l0,0a27.31368,27.31368,0,0,1-19.31369,8Z" style="fill:#e7999b"/><path d="M200,336v-4.6863A27.31368,27.31368,0,0,1,208,312l0,0a11.3137,11.3137,0,0,1,16,0l0,0a11.3137,11.3137,0,0,1,0,16l0,0a27.31368,27.31368,0,0,1-19.31369,8Z" style="fill:#e7999b"/><path d="M470.30005,399.1499a23.87348,23.87348,0,0,1,.52,16.26A23.98762,23.98762,0,0,1,448,432a23.99225,23.99225,0,0,1-32.04,22.61c.03.46008.04.92.04,1.39a23.99817,23.99817,0,0,1-41.52,16.3999,23.997,23.997,0,0,1-44.96,0A23.99817,23.99817,0,0,1,288,456c0-.27,0-.53.02-.8a23.91579,23.91579,0,0,1,6.15991-15.27A23.99841,23.99841,0,0,1,287.6,393.52a23.987,23.987,0,0,1,10.1-40.67A23.99949,23.99949,0,0,1,320,320a24.02873,24.02873,0,0,1,24-24,23.99911,23.99911,0,0,1,46.64-7.96c.45008-.03.9-.04,1.36-.04a23.98956,23.98956,0,0,1,23.15,17.7A23.71235,23.71235,0,0,1,424,304a24.00619,24.00619,0,0,1,24,24,24.00619,24.00619,0,0,1,24,24c0,.46-.01.90991-.04,1.36a23.99323,23.99323,0,0,1-1.65991,45.78991Z" style="fill:#b61d43"/><path d="M329.82007,383.92993A23.98982,23.98982,0,0,1,303.97,422.61c.02.46008.03.93.03,1.39a32.00131,32.00131,0,0,1-53.69995,23.52A23.93254,23.93254,0,0,1,232,456a24,24,0,1,1-46.90991-7.15A23.99986,23.99986,0,0,1,144,432v-.02A23.90869,23.90869,0,0,1,150.12,416,24.00989,24.00989,0,0,1,168,376a23.451,23.451,0,0,1,4.54.43994A32.02626,32.02626,0,0,1,208.97,329.27a23.99388,23.99388,0,0,1,40.12012-10.12012c-.01-.00989-.01-.00989-.01-.0199A23.99771,23.99771,0,1,1,295.15,305.7,23.71235,23.71235,0,0,1,304,304a23.99225,23.99225,0,0,1,22.61,32.04c.46008-.03.92-.04,1.39-.04a23.9995,23.9995,0,0,1,1.82007,47.92993Z" style="fill:#802787"/><ellipse cx="104" cy="400" rx="80" ry="72" style="fill:#396795"/><path d="M152,321.82007V352c0,17.66992-21.49,32-48,32s-48-14.33008-48-32V321.82007A15.88566,15.88566,0,0,1,64.78,307.61L72,304l7.22,3.61A15.88566,15.88566,0,0,1,88,321.82007v-8A15.88566,15.88566,0,0,1,96.78,299.61L104,296l7.22,3.61A15.88566,15.88566,0,0,1,120,313.82007v8A15.88449,15.88449,0,0,1,128.78,307.61L136,304l7.22,3.61A15.88566,15.88566,0,0,1,152,321.82007Z" style="fill:#26507a"/><path d="M150.5,359.98C145.17993,373.79,126.38,384,104,384V371.88a22.19874,22.19874,0,0,1,9.89-18.47009L128,344l8.82007,2.93994A22.14654,22.14654,0,0,1,150.5,359.98Z" style="fill:#2d80b3"/><path d="M104,371.88V384c-22.38,0-41.17993-10.21-46.5-24.02a22.14654,22.14654,0,0,1,13.67993-13.04L80,344l14.11,9.40991A22.19874,22.19874,0,0,1,104,371.88Z" style="fill:#2d80b3"/><path d="M208,112h4.68652a35.08178,35.08178,0,0,0,24.97022-10.34326,19.31355,19.31355,0,0,0-27.31348-27.31348A35.08178,35.08178,0,0,0,200,99.31348V104A7.99977,7.99977,0,0,0,208,112Zm13.65674-26.34326a3.31387,3.31387,0,1,1,4.68652,4.68652,19.18026,19.18026,0,0,1-9.99951,5.313A19.18026,19.18026,0,0,1,221.65674,85.65674Z"/><path d="M240,144a7.99977,7.99977,0,0,0,8,8h4.68652a35.08178,35.08178,0,0,0,24.97022-10.34326,19.31355,19.31355,0,1,0-27.31348-27.31348A35.08178,35.08178,0,0,0,240,139.31348Zm21.65674-18.34326a3.31387,3.31387,0,0,1,4.68652,4.68652,19.18026,19.18026,0,0,1-9.99951,5.313A19.18026,19.18026,0,0,1,261.65674,125.65674Z"/><path d="M296,200h4.68652a35.08178,35.08178,0,0,0,24.97022-10.34326,19.31355,19.31355,0,0,0-27.31348-27.31348A35.08178,35.08178,0,0,0,288,187.31348V192A7.99977,7.99977,0,0,0,296,200Zm13.65674-26.34326a3.31387,3.31387,0,0,1,4.68652,4.68652,19.18026,19.18026,0,0,1-9.99951,5.313A19.18026,19.18026,0,0,1,309.65674,173.65674Z"/><path d="M344,248h4.68652a35.08178,35.08178,0,0,0,24.97022-10.34326,19.31355,19.31355,0,0,0-27.31348-27.31348A35.08178,35.08178,0,0,0,336,235.31348V240A7.99977,7.99977,0,0,0,344,248Zm13.65674-26.34326a3.31387,3.31387,0,0,1,4.68652,4.68652,19.18026,19.18026,0,0,1-9.99951,5.313A19.18026,19.18026,0,0,1,357.65674,221.65674Z"/><path d="M184,168h4.68652a35.08178,35.08178,0,0,0,24.97022-10.34326,19.31355,19.31355,0,0,0-27.31348-27.31348A35.08178,35.08178,0,0,0,176,155.31348V160A7.99977,7.99977,0,0,0,184,168Zm13.65674-26.34326a3.31387,3.31387,0,0,1,4.68652,4.68652,19.18026,19.18026,0,0,1-9.99951,5.313A19.18026,19.18026,0,0,1,197.65674,141.65674Z"/><path d="M234.34326,178.34326A35.08178,35.08178,0,0,0,224,203.31348V208a7.99977,7.99977,0,0,0,8,8h4.68652a35.08178,35.08178,0,0,0,24.97022-10.34326,19.31355,19.31355,0,0,0-27.31348-27.31348Zm16,16a19.18026,19.18026,0,0,1-9.99951,5.313,19.18026,19.18026,0,0,1,5.313-9.99951,3.31387,3.31387,0,0,1,4.68652,4.68652Z"/><path d="M282.34326,226.34326A35.08178,35.08178,0,0,0,272,251.31348V256a7.99977,7.99977,0,0,0,8,8h4.68652a35.08178,35.08178,0,0,0,24.97022-10.34326,19.31355,19.31355,0,0,0-27.31348-27.31348Zm16,16a19.18026,19.18026,0,0,1-9.99951,5.313,19.18026,19.18026,0,0,1,5.313-9.99951,3.31387,3.31387,0,0,1,4.68652,4.68652Z"/><path d="M168,232h4.68652a35.08178,35.08178,0,0,0,24.97022-10.34326,19.31355,19.31355,0,0,0-27.31348-27.31348A35.08178,35.08178,0,0,0,160,219.31348V224A7.99977,7.99977,0,0,0,168,232Zm13.65674-26.34326a3.31387,3.31387,0,0,1,4.68652,4.68652,19.18026,19.18026,0,0,1-9.99951,5.313A19.18026,19.18026,0,0,1,181.65674,205.65674Z"/><path d="M218.34326,242.34326A35.08178,35.08178,0,0,0,208,267.31348V272a7.99977,7.99977,0,0,0,8,8h4.68652a35.08178,35.08178,0,0,0,24.97022-10.34326,19.31355,19.31355,0,0,0-27.31348-27.31348Zm16,16a19.18026,19.18026,0,0,1-9.99951,5.313,19.18026,19.18026,0,0,1,5.313-9.99951,3.31387,3.31387,0,0,1,4.68652,4.68652Z"/><path d="M152,296h4.68652a35.08178,35.08178,0,0,0,24.97022-10.34326,19.31355,19.31355,0,0,0-27.31348-27.31348A35.08178,35.08178,0,0,0,144,283.31348V288A7.99977,7.99977,0,0,0,152,296Zm13.65674-26.34326a3.31387,3.31387,0,0,1,4.68652,4.68652,19.18026,19.18026,0,0,1-9.99951,5.313A19.18026,19.18026,0,0,1,165.65674,269.65674Z"/><path d="M496,376a32.04843,32.04843,0,0,0-16.22949-27.84326,32.0861,32.0861,0,0,0-24.584-27.34326,32.06152,32.06152,0,0,0-30.03784-24.78833,72.04337,72.04337,0,0,0-5.4978-95.68775l-3.36572-3.36566a67.50627,67.50627,0,0,0,47.55957-51.40289A8.00053,8.00053,0,0,0,456,136H432.37012a67.11165,67.11165,0,0,0-34.52295,9.5625l-20.60706,12.36414-4.68677-4.68677a108.82572,108.82572,0,0,0,43.00672-69.93811l.33105-1.98731a7.99984,7.99984,0,0,0-9.20556-9.20556l-1.98828.33105a108.82584,108.82584,0,0,0-69.93714,43.00672l-5.02624-5.02625,6.73047-13.46094a81.2122,81.2122,0,0,0,2.76318-66.43066l-3.79981-9.5a8,8,0,0,0-11.00537-4.18408A80.54771,80.54771,0,0,0,283.47144,64.512a71.95453,71.95453,0,0,0-102.44556,9.156,297.69443,297.69443,0,0,0-65.7002,219.07349c-.17846-.09473-.35058-.198-.53222-.28882l-7.21582-3.60791a8.00053,8.00053,0,0,0-7.15528,0l-7.21582,3.60791a23.856,23.856,0,0,0-9.47021,8.49707q-.46435-.25782-.94287-.49707l-7.21582-3.60791a8.00053,8.00053,0,0,0-7.15528,0l-7.21582,3.60791A23.75993,23.75993,0,0,0,48,321.8208v16.46509C27.88818,353.40479,16,376.17505,16,400c0,44.1123,39.47656,80,88,80a93.20132,93.20132,0,0,0,54.69922-17.37915,32.20468,32.20468,0,0,0,18.02832.18042,32.00455,32.00455,0,0,0,62.459.38428,31.9036,31.9036,0,0,0,11.58692-5.271,40.09739,40.09739,0,0,0,30.01355,5.113,31.97449,31.97449,0,0,0,46.38537,21.1355,31.95615,31.95615,0,0,0,49.65528,0,31.98319,31.98319,0,0,0,46.16406-20.17871q.50318.01537,1.0083.01562a32.05831,32.05831,0,0,0,31.18652-24.81348,32.02993,32.02993,0,0,0,24.54737-35.32666A32.06212,32.06212,0,0,0,496,376ZM406.0791,159.28223A51.10957,51.10957,0,0,1,432.37012,152h12.8584a51.42294,51.42294,0,0,1-38.78125,30.81494l-3.70179.61707-13.84362-13.84369Zm-8.45361-68.90772a92.80964,92.80964,0,0,1-36.55322,51.38428l-14.83106-14.83106A92.81088,92.81088,0,0,1,397.62549,90.37451ZM324.01611,35.58105l.356.89014a65.20084,65.20084,0,0,1-2.21826,53.333l-4.34546,8.69073-21.124-21.12414.14379-.71942A64.669,64.669,0,0,1,324.01611,35.58105ZM193.40918,83.7998a56.00088,56.00088,0,0,1,82.93994-4.1372L408.3374,211.65088a56.01873,56.01873,0,0,1,3.54785,75.31128,32.16149,32.16149,0,0,0-5.6737-3.61182,35.48518,35.48518,0,0,0,7.44519-5.6936,19.31355,19.31355,0,0,0-27.31348-27.31348,35.11625,35.11625,0,0,0-8.94165,15.08985,31.93236,31.93236,0,0,0-40.59106,23.39453A32.29152,32.29152,0,0,0,319.182,299.83777,31.80239,31.80239,0,0,0,304,296a32.12868,32.12868,0,0,0-4.14014.26611,31.99905,31.99905,0,0,0-59.13232,8.93262,32.053,32.053,0,0,0-36.55029,15.01563A40.68225,40.68225,0,0,0,200,320a39.82064,39.82064,0,0,0-35.65833,21.7688q-2.09911-1.80414-4.34167-3.48291V321.8208a23.75993,23.75993,0,0,0-13.20654-21.36816l-7.21582-3.60791a8.00053,8.00053,0,0,0-7.15528,0l-.494.24707A281.68627,281.68627,0,0,1,193.40918,83.7998ZM402.34326,266.34326a19.18026,19.18026,0,0,1-9.99951,5.313,19.18026,19.18026,0,0,1,5.313-9.99951,3.31387,3.31387,0,0,1,4.68652,4.68652ZM64,321.8208a7.848,7.848,0,0,1,4.36182-7.05762L72,312.94434l3.63818,1.81884A7.848,7.848,0,0,1,80,321.8208a8,8,0,0,0,16,0v-8a7.848,7.848,0,0,1,4.36182-7.05762L104,304.94434l3.63818,1.81884A7.848,7.848,0,0,1,112,313.8208v8a8,8,0,0,0,16,0,7.848,7.848,0,0,1,4.36182-7.05762L136,312.94434l3.63818,1.81884A7.848,7.848,0,0,1,144,321.8208v19.52393a30.46279,30.46279,0,0,0-4.6499-1.99414l-8.82031-2.94a7.99668,7.99668,0,0,0-6.96875.9336l-14.1084,9.40967A30.3277,30.3277,0,0,0,104,351.40381a30.3323,30.3323,0,0,0-5.45117-4.64942L84.439,337.34424a8.00009,8.00009,0,0,0-6.96875-.9336l-8.81738,2.939A30.31729,30.31729,0,0,0,64,341.34229ZM32,400a59.26511,59.26511,0,0,1,16-40.24963V360a7.99971,7.99971,0,0,0,8.16162,7.99854l1.5-.03028a7.99985,7.99985,0,0,0,7.29395-5.09765,14.17679,14.17679,0,0,1,8.7539-8.34131l5.10742-1.70215,10.85547,7.23926A14.1729,14.1729,0,0,1,96,371.87988V384a8,8,0,0,0,16,0V371.87988a14.17219,14.17219,0,0,1,6.3291-11.814l10.854-7.23877,5.10351,1.70117a14.16689,14.16689,0,0,1,8.75342,8.34131,8.00093,8.00093,0,0,0,7.353,5.10986l1.5.02A8.00034,8.00034,0,0,0,160,360v-.24963A59.26511,59.26511,0,0,1,176,400c0,35.28955-32.29932,64-72,64S32,435.28955,32,400Zm223.73047,41.646a7.99927,7.99927,0,0,0-11.53272.70068A15.99549,15.99549,0,0,1,216,432H200a32.05609,32.05609,0,0,0,22.56787,30.57983A15.98994,15.98994,0,0,1,192,456a15.8203,15.8203,0,0,1,.72217-4.752,8.00008,8.00008,0,0,0-13.32129-8.02246,16.20244,16.20244,0,0,1-3.2561,2.52807,73.90548,73.90548,0,0,0,.43066-90.929A23.85886,23.85886,0,0,1,200,336a31.80274,31.80274,0,0,0,9.39551,22.64746A32.0086,32.0086,0,0,0,236.15869,399.773a32.36939,32.36939,0,0,0,7.97754-.0459A31.99694,31.99694,0,0,0,304,384H288a15.99527,15.99527,0,0,1-31.42773,4.21045c-.01441-.0531-.03577-.10315-.05127-.15576a16.01092,16.01092,0,0,1,3.55127-14.71973l-11.92188-10.6709A31.94926,31.94926,0,0,0,240,383.99951a16.8972,16.8972,0,0,1-1.96143-.11572,16.0399,16.0399,0,0,1-14.03076-15.3877,15.845,15.845,0,0,1,2.0459-8.32031,8.0002,8.0002,0,0,0-2.65478-10.70312,15.97789,15.97789,0,0,1-6.79395-17.83448c.01428-.04589.03345-.0896.04688-.13574A16.05336,16.05336,0,0,1,232,320a15.89335,15.89335,0,0,1,10.214,3.68555,32.02379,32.02379,0,0,0,33.92615,20.04834A32.06212,32.06212,0,0,0,304,360V344a16.00293,16.00293,0,0,1-15.42773-11.78955,7.99972,7.99972,0,0,0-10.70264-5.33447A15.68929,15.68929,0,0,1,272,328a15.92694,15.92694,0,0,1-15.25879-11.17676c-.00708-.02368-.0116-.04761-.019-.07129A15.8203,15.8203,0,0,1,256,312a15.99527,15.99527,0,0,1,31.42773-4.21045,8.0004,8.0004,0,0,0,10.70264,5.335A15.68,15.68,0,0,1,304,312a15.99159,15.99159,0,0,1,15.07568,21.34961,8.0004,8.0004,0,0,0,8.05909,10.67334c.28662-.019.57275-.02295.86523-.02295a15.99943,15.99943,0,0,1,1.22217,31.95215,7.99973,7.99973,0,0,0-5.34424,13.33349A15.996,15.996,0,0,1,312,416a15.75623,15.75623,0,0,1-5.33057-.9209,8.00011,8.00011,0,0,0-10.69189,7.88672c.01514.34277.02246.69189.02246,1.03418a24.00174,24.00174,0,0,1-40.26953,17.646Zm212.48-50.21827c-.05237.01416-.10169.03528-.15357.05054A16.00384,16.00384,0,0,1,448,376H432a32.036,32.036,0,0,0,32,32,16.01833,16.01833,0,0,1-16,16,7.99977,7.99977,0,0,0-8,8,15.99159,15.99159,0,0,1-21.34961,15.07568c-.0282-.01-.05737-.01489-.08569-.02465A16.03605,16.03605,0,0,1,408,432a7.99977,7.99977,0,0,0-8-8,16.01833,16.01833,0,0,1-16-16H368a32.05558,32.05558,0,0,0,24.82031,31.188,32.13621,32.13621,0,0,0,14.78711,20.292A16.02,16.02,0,0,1,392,472a15.83787,15.83787,0,0,1-11.67871-5.06641,8.00048,8.00048,0,0,0-13.33643,2.66895,15.99685,15.99685,0,0,1-29.96972,0,8.00048,8.00048,0,0,0-13.33643-2.66895A15.83787,15.83787,0,0,1,312,472a16.01833,16.01833,0,0,1-16-16l.0011-.02344a40.06866,40.06866,0,0,0,15.19714-23.98633q.40064.00952.80176.00977a31.90014,31.90014,0,0,0,22.645-9.4126A32.06069,32.06069,0,0,0,344,424a32.036,32.036,0,0,0,32,32V440a16.01833,16.01833,0,0,1-16-16,15.75562,15.75562,0,0,1,1.55957-6.88281,7.99995,7.99995,0,0,0-10.67676-10.67676A15.75562,15.75562,0,0,1,344,408q-.50353,0-1.00452-.03223a31.98369,31.98369,0,0,0,.68836-12.43884A31.9106,31.9106,0,0,0,360,400V384a15.95131,15.95131,0,0,1-8.46118-2.416,31.98309,31.98309,0,0,0,8.23974-18.01464,31.98188,31.98188,0,0,0,26.88794,2.60644l-5.333-15.085a16.009,16.009,0,0,1-20.76123-10.88037,7.99972,7.99972,0,0,0-10.70264-5.33447c-.48.19262-.97168.35168-1.46826.49536a31.93369,31.93369,0,0,0-12.417-6.363q.01537-.50318.01562-1.0083a31.79979,31.79979,0,0,0-5.05457-17.22778,16.14268,16.14268,0,0,1,6.483-5.33557,32.08561,32.08561,0,0,0,26.72827,22.33386,32.03248,32.03248,0,0,0,31.9834,15.96338A32.06212,32.06212,0,0,0,424,360V344a16.00293,16.00293,0,0,1-15.42773-11.78955,7.99972,7.99972,0,0,0-10.70264-5.33447A15.68929,15.68929,0,0,1,392,328a16.01477,16.01477,0,0,1-15.09229-10.69092,7.99931,7.99931,0,0,0-8.085-5.33105c-.27246.01806-.54443.022-.82275.022a16,16,0,1,1,15.09229-21.30908,8.00167,8.00167,0,0,0,8.085,5.33105c.272-.01806.54443-.022.82275-.022a16.00293,16.00293,0,0,1,15.42773,11.78955,8.0004,8.0004,0,0,0,10.70264,5.335A15.68,15.68,0,0,1,424,312a16.01833,16.01833,0,0,1,16,16,7.99977,7.99977,0,0,0,8,8,16.01833,16.01833,0,0,1,16,16c0,.27832-.00391.55078-.022.82275a7.9995,7.9995,0,0,0,5.33105,8.085,15.99352,15.99352,0,0,1-1.09863,30.52Z"/></g></svg>
