<svg height="512pt" viewBox="0 0 512 512.00092" width="512pt" xmlns="http://www.w3.org/2000/svg"><path d="m367.316406 504.476562h-146.578125c-6.269531 0-11.351562-5.082031-11.351562-11.351562v-11.773438c0-6.265624 5.082031-11.347656 11.351562-11.347656h146.578125c6.269532 0 11.351563 5.078125 11.351563 11.347656v11.773438c0 6.269531-5.082031 11.351562-11.351563 11.351562zm0 0" fill="#dce6eb"/><path d="m367.316406 470.003906h-28.648437v3.121094c0 6.269531-5.082031 11.351562-11.351563 11.351562h-117.929687v8.648438c0 6.269531 5.082031 11.351562 11.351562 11.351562h146.578125c6.269532 0 11.351563-5.082031 11.351563-11.351562v-11.773438c0-6.269531-5.082031-11.347656-11.351563-11.347656zm0 0" fill="#b9c3cd"/><path d="m207.882812 365.316406c-1.105468-12.5625 5.703126-24.355468 17.132813-29.679687 24.5625-11.445313 47.511719-32.230469 63.683594-60.246094 34.515625-59.78125-7.15625-131.65625-28.230469-143.824219-21.074219-12.164062-104.15625-12.316406-138.667969 47.464844-16.175781 28.015625-22.703125 58.28125-20.335937 85.273438 1.105468 12.5625-5.703125 24.355468-17.132813 29.679687-24.5625 11.445313-47.507812 32.230469-63.683593 60.246094-34.511719 59.777343 7.15625 131.65625 28.230468 143.824219 21.074219 12.167968 104.15625 12.316406 138.667969-47.460938 16.175781-28.019531 22.703125-58.285156 20.335937-85.277344zm0 0" fill="#ad7b64"/><path d="m260.46875 131.566406c-5.261719-3.039062-14.394531-5.328125-25.667969-6.121094 20.355469 26.535157 41.519531 82.109376 13.902344 129.945313-16.175781 28.015625-39.121094 48.800781-63.683594 60.246094-11.429687 5.324219-18.238281 17.117187-17.136719 29.679687 2.371094 26.992188-4.15625 57.257813-20.332031 85.273438-25.894531 44.851562-79.125 55.964844-113 53.582031 5.085938 6.628906 10.117188 11.449219 14.328125 13.878906 21.078125 12.167969 104.15625 12.316407 138.667969-47.460937 16.175781-28.015625 22.707031-58.28125 20.335937-85.277344-1.101562-12.558594 5.707032-24.351562 17.136719-29.675781 24.5625-11.445313 47.507813-32.230469 63.683594-60.25 34.511719-59.777344-7.160156-131.652344-28.234375-143.820313zm0 0" fill="#865b47"/><path d="m436.957031 222.550781h-40.808593c19.609374 0 35.503906-15.894531 35.503906-35.503906s-15.894532-35.503906-35.503906-35.503906h-69.394532c39.582032 0 72.574219-31.488281 73.089844-71.066407.519531-40.214843-31.921875-72.976562-72.015625-72.976562 20.382813 0 36.84375 16.804688 36.28125 37.316406-.542969 19.769532-17.261719 35.277344-37.039063 35.277344h-82.664062c-19.730469 0-35.726562 15.992188-35.726562 35.722656 0 3.558594.527343 6.992188 1.496093 10.234375 22.164063-2.5 41.558594.472657 50.292969 5.515625 19.070312 11.011719 54.996094 70.90625 36.09375 126.492188h175.902344c0-19.609375-15.898438-35.507813-35.507813-35.507813zm0 0" fill="#fcb54c"/><path d="m436.957031 222.550781h-40.808593c19.609374 0 35.503906-15.894531 35.503906-35.503906s-15.894532-35.503906-35.503906-35.503906h-8.050782c2.277344 4.683593 3.558594 9.945312 3.558594 15.503906 0 39.21875-31.792969 71.011719-71.011719 71.011719h-19.542969c-.816406 6.667968-2.285156 13.367187-4.542968 20h175.902344c.003906-19.609375-15.894532-35.507813-35.503907-35.507813zm0 0" fill="#fa9a0f"/><path d="m492.355469 258.058594h-195.792969c-1.988281 5.847656-4.578125 11.644531-7.863281 17.332031-8.609375 14.914063-19.152344 27.753906-30.824219 38.253906h234.480469c6.664062 0 12.066406-5.402343 12.066406-12.070312v-31.445313c0-6.667968-5.402344-12.070312-12.066406-12.070312zm0 0" fill="#dce6eb"/><path d="m257.875 313.644531c-10.25 9.21875-21.371094 16.640625-32.859375 21.992188-11.429687 5.324219-18.238281 17.117187-17.132813 29.679687 2.371094 26.992188-4.160156 57.257813-20.335937 85.273438-.761719 1.324218-1.554687 2.605468-2.367187 3.867187 20.613281 9.976563 43.683593 15.546875 67.9375 15.546875h81.824218c79.132813 0 145.75-59.207031 155.046875-137.792968l2.195313-18.566407zm0 0" fill="#dce6eb"/><path d="m492.355469 258.058594h-27.933594c0 19.65625-15.929687 35.585937-35.582031 35.585937h-152.4375c-5.726563 7.371094-11.9375 14.070313-18.527344 20h234.480469c6.664062 0 12.066406-5.402343 12.066406-12.070312v-31.445313c0-6.667968-5.402344-12.070312-12.066406-12.070312zm0 0" fill="#b9c3cd"/><path d="m449.800781 313.644531c-9.929687 77.867188-76.207031 136.359375-154.859375 136.359375h-81.824218c-8.21875 0-16.300782-.65625-24.199219-1.890625-.457031.824219-.894531 1.65625-1.371094 2.476563-.761719 1.324218-1.558594 2.605468-2.367187 3.867187 20.609374 9.976563 43.683593 15.546875 67.9375 15.546875h81.820312c79.136719 0 145.753906-59.207031 155.050781-137.792968l2.195313-18.566407zm0 0" fill="#b9c3cd"/><path d="m492.355469 250.558594h-13.058594c-3.558594-20.148438-21.183594-35.507813-42.339844-35.507813h-8.199219c6.476563-7.527343 10.394532-17.316406 10.394532-28.003906 0-23.714844-19.289063-43.003906-43.003906-43.003906h-22.460938c40.46875-28.796875 44.933594-85.738281 10.734375-120.386719-15.046875-15.242188-35.144531-23.65625-56.59375-23.65625-4.144531 0-7.5 3.355469-7.5 7.5 0 4.140625 3.355469 7.5 7.5 7.5 16.195313 0 29.230469 13.324219 28.785156 29.609375-.421875 15.429687-13.675781 27.980469-29.542969 27.980469h-39.300781c-4.140625 0-7.5 3.359375-7.5 7.5 0 4.144531 3.359375 7.5 7.5 7.5h39.300781c29.390626 0 51.789063-28.425782 42.4375-57.332032 14.449219 12.28125 23.09375 30.226563 22.835938 50.121094-.457031 35.101563-29.878906 63.664063-65.589844 63.664063-4.144531 0-7.5 3.355469-7.5 7.496093 0 4.144532 3.355469 7.5 7.5 7.5h69.394532c15.441406 0 28.003906 12.5625 28.003906 28.007813 0 15.441406-12.5625 28.003906-28.003906 28.003906-4.140626 0-7.5 3.359375-7.5 7.5 0 4.144531 3.359374 7.5 7.5 7.5h40.808593c12.847657 0 23.703125 8.691407 26.988281 20.507813h-157.519531c4.882813-21 3.652344-44.058594-3.859375-67.246094-9.449218-29.15625-26.445312-51.367188-38.347656-58.242188-8.953125-5.167968-26.867188-8.492187-47.953125-7.097656-1.253906-16.425781 11.777344-30.378906 28.140625-30.378906h8.367188c4.140624 0 7.5-3.359375 7.5-7.5 0-4.144531-3.359376-7.5-7.5-7.5h-8.367188c-25.261719 0-45.335938 21.722656-43.042969 47.113281-35.648437 5.933594-68 24.296875-86.058593 55.570313-16.332032 28.296875-23.902344 60.144531-21.308594 89.683594.832031 9.480468-4.203125 18.203124-12.832032 22.226562-26.878906 12.519531-50.675781 35-67.011718 63.292969-15.871094 27.488281-18.488282 61.519531-7.371094 95.828125 9.449219 29.15625 26.441406 51.367187 38.347656 58.238281 23.382813 13.5 102.910156 13.3125 142.65625-40.652344 5.777344 2.527344 11.65625 4.699219 17.625 6.527344-2.207031 3.085937-3.523437 6.855469-3.523437 10.933594v11.769531c0 10.394531 8.457031 18.851562 18.851562 18.851562h146.578125c10.394532 0 18.851563-8.457031 18.851563-18.851562v-11.769531c0-4.082031-1.316407-7.855469-3.53125-10.945313 60.6875-18.5 107.003906-71.421875 114.796875-137.320312l1.554687-13.128906c7.527344-2.726563 12.933594-9.925782 12.933594-18.382813v-31.449219c0-10.789062-8.777344-19.570312-19.566406-19.570312zm-291.945313 115.414062c1.402344 15.960938-.558594 32.726563-5.558594 49.148438-10.511718-4.824219-21.09375-9.941406-31.714843-15.347656 8.480469-18.296876 14.804687-36.25 18.328125-52.332032.515625-2.34375 1.296875-4.769531 2.28125-7.183594l18.457031 10.652344c-1.59375 4.757813-2.25 9.871094-1.792969 15.0625zm-150.851562 115.898438c-2.457032-13.25-.996094-29.390625 1.773437-42.746094 5.675781 3.386719 11.375 6.75 17.089844 10.078125-12.082031 20.929687-8.136719 14.089844-18.863281 32.667969zm31.851562-25.167969c5.746094 3.285156 11.503906 6.539063 17.273438 9.761719-10.175782 9.074218-23.429688 18.414062-36.136719 22.914062 10.75-18.617187 6.765625-11.722656 18.863281-32.675781zm7.5-12.988281 5.714844-9.898438c2.070312-3.585937.84375-8.171875-2.746094-10.242187-3.585937-2.070313-8.171875-.84375-10.242187 2.742187l-5.714844 9.898438c-6.925781-4.035156-13.828125-8.109375-20.683594-12.226563 6.105469-19.839843 14.804688-36.195312 25.886719-53.492187 7.941406 4.984375 16.039062 9.882812 24.25 14.707031l-6.238281 10.804687c-2.070313 3.585938-.84375 8.171876 2.742187 10.246094 3.574219 2.058594 8.167969.855469 10.246094-2.746094l6.238281-10.804687c8.28125 4.695313 16.574219 9.257813 24.863281 13.644531-9.429687 18.226563-19.242187 33.949219-33.382812 49.167969-6.996094-3.882813-13.976562-7.824219-20.933594-11.800781zm42.265625-133.8125 13.253907 7.652344-31.558594 54.65625c-7.910156-4.644532-15.710938-9.367188-23.363282-14.167969 10.851563-15.359375 22.359376-28.769531 33.617188-39.039063 2.871094-2.617187 5.589844-5.710937 8.050781-9.101562zm-22.238281-46.253906c-1.402344-15.960938.558594-32.726563 5.558594-49.144532 10.511718 4.820313 21.09375 9.941406 31.714844 15.34375-8.480469 18.296875-14.804688 36.25-18.328126 52.332032-.515624 2.34375-1.296874 4.769531-2.28125 7.183593l-18.457031-10.65625c1.59375-4.757812 2.25-9.871093 1.792969-15.058593zm33.597656 21.742187c3.257813-14.882813 9.125-31.550781 16.996094-48.628906 7.984375 4.226562 15.972656 8.621093 23.953125 13.148437-16.335937 28.292969-14.933594 25.863282-31.554687 54.65625l-13.253907-7.652344c1.703125-3.828124 3.027344-7.730468 3.859375-11.523437zm85.6875-26.261719c-7.941406-4.984375-16.039062-9.886718-24.25-14.707031l29.457032-51.023437c6.921874 4.035156 13.824218 8.109374 20.683593 12.226562-6.113281 19.867188-14.824219 36.230469-25.890625 53.503906zm-50.050781 60.585938-13.253906-7.652344c16.644531-28.824219 15.214843-26.34375 31.554687-54.652344 7.910156 4.648438 15.710938 9.367188 23.367188 14.167969-10.855469 15.359375-22.359375 28.769531-33.617188 39.035156-2.871094 2.617188-5.585937 5.714844-8.050781 9.101563zm62.757813-139.304688 18.859374-32.664062c2.457032 13.25.996094 29.390625-1.773437 42.738281-5.675781-3.386719-11.371094-6.746094-17.085937-10.074219zm-12.988282-7.5c-5.742187-3.285156-11.5-6.539062-17.269531-9.761718 10.128906-9.03125 23.371094-18.386719 36.121094-22.894532zm-7.5 12.988282-29.457031 51.023437c-8.28125-4.699219-16.574219-9.261719-24.863281-13.644531 9.433594-18.234375 19.246094-33.957032 33.390625-49.179688 6.992187 3.882813 13.972656 7.824219 20.929687 11.800782zm-94.578125 193.8125 31.554688-54.65625 13.253906 7.652343c-1.703125 3.828125-3.027344 7.730469-3.855469 11.523438-3.261718 14.882812-9.125 31.554687-17.003906 48.632812-7.980469-4.230469-15.96875-8.625-23.949219-13.152343zm83.839844-41.789063-18.457031-10.65625c1.601562-2.0625 3.308594-3.949219 5.082031-5.566406 12.167969-11.09375 24.550781-25.550781 36.15625-42.039063 9.988281 6.492188 19.714844 13.097656 29.148437 19.792969-11.71875 12.539063-25.257812 22.617187-39.785156 29.382813-4.71875 2.203124-8.820312 5.324218-12.144531 9.085937zm61.628906-49.972656c-9.855469-7.015625-20.023437-13.9375-30.480469-20.738281 11.222657-17.503907 19.980469-33.914063 26.464844-53.582032 9.097656 5.558594 18.101563 11.171875 26.980469 16.816406-.429687 8.078126-1.863281 16.460938-4.71875 24.894532-.074219.199218-.148437.398437-.207031.605468-1.8125 5.234376-4.15625 10.484376-7.164063 15.695313-3.304687 5.71875-6.957031 11.160156-10.875 16.308594zm22.359375-75.628907c-7.308594-4.585937-14.683594-9.148437-22.121094-13.671874 2.914063-12.222657 4.664063-25.304688 4.433594-38.019532 9.121094 15.324219 15.585938 33.746094 17.6875 51.691406zm-66.160156-79.675781c-11.085938 6.136719-21.542969 14.175781-30.707031 22.847657-7.636719-4.179688-15.273438-8.285157-22.898438-12.320313 16.863281-7.269531 36.09375-10.757813 53.605469-10.527344zm-69.605469 19.0625c9.328125 4.871094 18.691407 9.863281 28.054688 14.960938-13.796875 15.453125-23.625 31.238281-33.171875 49.710937-11.117188-5.65625-22.199219-11-33.203125-16.027344 8.707031-20.789062 19.503906-36.398437 38.320312-48.644531zm-70.425781 149.074219c4.71875-2.199219 8.820312-5.324219 12.144531-9.082031l18.457031 10.65625c-1.597656 2.0625-3.308593 3.953125-5.082031 5.566406-12.167969 11.097656-24.550781 25.550781-36.160156 42.042969-9.988281-6.492188-19.714844-13.101563-29.144531-19.792969 11.71875-12.542969 25.257812-22.621094 39.785156-29.390625zm-49.488281 40.890625c9.855469 7.019531 20.027343 13.941406 30.480469 20.738281-11.214844 17.503906-19.972657 33.90625-26.457032 53.574219-9.101562-5.5625-18.105468-11.175781-26.984375-16.816406 1.199219-22.410157 9.316407-39.5625 22.960938-57.496094zm-22.355469 75.617187c7.304688 4.585938 14.683594 9.148438 22.121094 13.675782-2.921875 12.25-4.664063 25.335937-4.433594 38.027344-9.136719-15.355469-15.589844-33.785157-17.6875-51.703126zm66.148438 79.6875c11.085937-6.136718 21.519531-14.144531 30.722656-22.855468 7.640625 4.179687 15.28125 8.289062 22.90625 12.320312-16.617188 7.167969-35.804688 10.769532-53.628906 10.535156zm69.625-19.070312c-9.328126-4.867188-18.691407-9.859375-28.054688-14.960938 13.78125-15.4375 23.609375-31.21875 33.164062-49.699218 11.117188 5.652344 22.199219 11 33.203126 16.027344-2.898438 6.917968-6.800782 14.785156-10.914063 21.203124-6.101563 9.800782-15.5625 19.726563-27.398437 27.429688zm215.886718-.40625c2.125 0 3.851563 1.730469 3.851563 3.851562v11.773438c0 2.125-1.726563 3.851562-3.851563 3.851562h-146.578125c-2.125 0-3.851562-1.726562-3.851562-3.851562v-11.773438c0-2.121093 1.726562-3.851562 3.851562-3.851562zm-32.378906-15h-81.820312c-19.886719 0-39.101563-3.847656-57.234376-11.441406 15.058594-27.460938 21.964844-58 19.46875-86.402344-.816406-9.324219 4.167969-18.203125 12.660157-22.144531 11.59375-5.378907 22.613281-12.617188 32.714843-21.371094h106.140626c4.140624 0 7.5-3.355469 7.5-7.5 0-4.140625-3.359376-7.496094-7.5-7.496094h-91.035157c9.988281-11.34375 20.289063-26.363281 25.921875-40.585937h190.601563c2.523437 0 4.566406 2.042968 4.566406 4.566406v31.449219c0 2.523437-2.042969 4.566406-4.566406 4.566406h-90.492188c-4.140625 0-7.5 3.359375-7.5 7.5s3.359375 7.5 7.5 7.5h81.878907l-1.203126 10.1875c-8.84375 74.78125-72.300781 131.171875-147.601562 131.171875zm0 0"/></svg>