<svg height="512pt" viewBox="0 0 512.00732 512" width="512pt" xmlns="http://www.w3.org/2000/svg"><path d="m503.46875 503.472656h-494.933594c5.730469-29.390625 24.59375-54.539062 51.203125-68.269531 68.265625-34.132813 68.265625-59.730469 102.398438-85.332031 24.0625-18.003906 43.863281-31.828125 65.449219-38.398438 9.199218-2.867187 18.785156-4.304687 28.417968-4.269531 34.132813 0 59.734375 17.066406 93.867188 42.667969 34.132812 25.601562 34.132812 51.199218 102.398437 85.332031 26.609375 13.730469 45.472657 38.878906 51.199219 68.269531zm0 0" fill="#4e342e"/><path d="m472.75 503.472656h-464.214844c5.730469-29.390625 24.59375-54.539062 51.203125-68.269531 68.265625-34.132813 68.265625-59.730469 102.398438-85.332031 24.0625-18.003906 43.863281-31.828125 65.449219-38.398438 33.453124.511719 58.796874 17.40625 92.417968 42.664063 34.132813 25.601562 34.132813 51.203125 102.398438 85.335937 25.28125 13.007813 43.65625 36.367188 50.347656 64zm0 0" fill="#795548"/><path d="m460.804688 170.671875c-8.894532 7.941406-19.628907 13.542969-31.234376 16.296875-6.625 1.832031-13.347656 3.285156-20.136718 4.351562-17.582032 2.605469-35.308594 4.089844-53.078125 4.4375-6.316407.171876-12.714844.34375-19.199219.34375h-.085938c-9.984374.167969-20.054687.167969-29.867187.167969-6.726563.035157-13.4375.664063-20.054687 1.878907-6.515626 1.210937-12.957032 2.804687-19.285157 4.777343-24.132812 8.1875-46.957031 19.832031-67.753906 34.5625-2.625 1.804688-6.082031 1.847657-8.753906.109375-2.671875-1.738281-4.03125-4.914062-3.449219-8.046875.855469-4.609375 1.964844-9.898437 3.414062-15.785156.425782-1.621094.855469-3.242187 1.28125-4.949219v-.085937c6.695313-27.34375 16.367188-53.867188 28.84375-79.105469 2.898438-5.800781 6.058594-11.519531 9.386719-17.152344 9.210938-15.785156 20.554688-30.226562 33.703125-42.921875 6.679688-6.445312 14-12.195312 21.847656-17.152343 12.4375-7.941407 26.285157-13.414063 40.789063-16.128907 7.480469-1.421875 15.082031-2.136719 22.699219-2.132812 14.304687-.242188 28.585937 1.335937 42.496094 4.695312 1.195312.253907 2.304687.597657 3.414062.9375 14.554688 3.054688 27.28125 11.8125 35.328125 24.320313 2.359375 3.851562 3.765625 8.210937 4.09375 12.714844 3.636719.699218 7.167969 1.875 10.496094 3.5h.085937c33.363282 15.445312 38.316406 67.070312 15.019532 90.367187zm0 0" fill="#2e7d32"/><path d="m435.203125 157.871094c-8.894531 7.941406-19.628906 13.542968-31.230469 16.300781-6.625 1.832031-13.347656 3.285156-20.140625 4.351563-17.578125 2.605468-35.308593 4.085937-53.078125 4.4375-6.3125.167968-12.714844.339843-19.199218.339843h-.085938c-9.984375.171875-20.050781.171875-29.863281.171875-6.730469.03125-13.4375.660156-20.054688 1.875-6.519531 1.210938-12.957031 2.804688-19.285156 4.78125-17.824219 5.921875-34.914063 13.851563-50.945313 23.636719.425782-1.621094.855469-3.242187 1.28125-4.949219v-.085937c6.695313-27.34375 16.367188-53.867188 28.84375-79.105469 2.898438-5.800781 6.058594-11.519531 9.386719-17.152344 9.210938-15.785156 20.554688-30.226562 33.703125-42.921875 6.679688-6.445312 14-12.195312 21.847656-17.152343 12.4375-7.941407 26.285157-13.414063 40.789063-16.128907 7.480469-1.421875 15.082031-2.136719 22.699219-2.132812 14.304687-.242188 28.585937 1.335937 42.496094 4.695312 1.195312.253907 2.304687.597657 3.414062.9375 3.90625 3.226563 7.199219 7.128907 9.726562 11.519531 2.363282 3.851563 3.765626 8.210938 4.097657 12.714844 3.636719.699219 7.164062 1.878906 10.496093 3.5h.082032c33.367187 15.445313 38.316406 67.070313 15.019531 90.367188zm0 0" fill="#4caf50"/><path d="m488.109375 14.511719c-1.472656-.011719-2.921875.386719-4.179687 1.152343-8.832032 5.539063-16.734376 12.117188-28.332032 35.539063 9.917969-6.96875 22.1875-15.222656 37.105469-24.746094 1.777344-1.03125 2.96875-2.839843 3.222656-4.878906.152344-1.757813-.53125-3.480469-1.84375-4.660156-1.597656-1.550781-3.742187-2.414063-5.972656-2.40625zm0 0" fill="#2e7d32"/><path d="m.0898438 502.242188c-.3593748 2.453124.3710942 4.9375 1.9921872 6.8125 1.621094 1.875 3.976563 2.949218 6.453125 2.949218h494.933594c2.480469 0 4.835938-1.074218 6.457031-2.949218 1.621094-1.875 2.347657-4.359376 1.992188-6.8125-6.070313-32.183594-26.679688-59.75-55.832031-74.675782-27.835938-12.539062-52.3125-31.480468-71.433594-55.277344-8.703125-10.878906-18.660156-20.695312-29.660156-29.246093-34.636719-25.980469-62.023438-44.371094-98.988282-44.371094s-64.351562 18.390625-98.988281 44.371094c-11 8.550781-20.957031 18.367187-29.660156 29.246093-19.121094 23.796876-43.597657 42.738282-71.433594 55.277344-29.152344 14.925782-49.761719 42.492188-55.8320312 74.675782zm140.2343752-118.867188c7.902343-9.917969 16.941406-18.871094 26.933593-26.675781 32.988282-24.746094 56.984376-40.960938 88.746094-40.960938 31.761719 0 55.757813 16.214844 88.746094 40.960938 9.992188 7.804687 19.03125 16.757812 26.929688 26.675781 20.625 25.527344 46.921874 45.890625 76.800781 59.46875 21.113281 10.71875 37.007812 29.5 44.085937 52.09375h-473.125c7.09375-22.582031 22.996094-41.347656 44.109375-52.054688 29.875-13.589843 56.164063-33.96875 76.773438-59.507812zm0 0"/><path d="m196.269531 375.472656h17.066407c4.714843 0 8.535156-3.820312 8.535156-8.535156 0-4.710938-3.820313-8.53125-8.535156-8.53125h-17.066407c-4.710937 0-8.53125 3.820312-8.53125 8.53125 0 4.714844 3.820313 8.535156 8.53125 8.535156zm0 0"/><path d="m162.136719 409.605469h17.066406c4.714844 0 8.535156-3.820313 8.535156-8.535157 0-4.710937-3.820312-8.53125-8.535156-8.53125h-17.066406c-4.710938 0-8.53125 3.820313-8.53125 8.53125 0 4.714844 3.820312 8.535157 8.53125 8.535157zm0 0"/><path d="m213.335938 426.671875h-17.066407c-4.710937 0-8.53125 3.820313-8.53125 8.53125 0 4.714844 3.820313 8.535156 8.53125 8.535156h17.066407c4.714843 0 8.535156-3.820312 8.535156-8.535156 0-4.710937-3.820313-8.53125-8.535156-8.53125zm0 0"/><path d="m128.003906 443.738281h17.066406c4.710938 0 8.535157-3.820312 8.535157-8.535156 0-4.710937-3.824219-8.53125-8.535157-8.53125h-17.066406c-4.714844 0-8.535156 3.820313-8.535156 8.53125 0 4.714844 3.820312 8.535156 8.535156 8.535156zm0 0"/><path d="m187.738281 460.804688h-17.066406c-4.714844 0-8.535156 3.820312-8.535156 8.535156 0 4.710937 3.820312 8.53125 8.535156 8.53125h17.066406c4.710938 0 8.53125-3.820313 8.53125-8.53125 0-4.714844-3.820312-8.535156-8.53125-8.535156zm0 0"/><path d="m85.335938 477.871094h17.066406c4.714844 0 8.535156-3.820313 8.535156-8.53125 0-4.714844-3.820312-8.535156-8.535156-8.535156h-17.066406c-4.710938 0-8.53125 3.820312-8.53125 8.535156 0 4.710937 3.820312 8.53125 8.53125 8.53125zm0 0"/><path d="m298.671875 375.472656h17.066406c4.710938 0 8.53125-3.820312 8.53125-8.535156 0-4.710938-3.820312-8.53125-8.53125-8.53125h-17.066406c-4.714844 0-8.535156 3.820312-8.535156 8.53125 0 4.714844 3.820312 8.535156 8.535156 8.535156zm0 0"/><path d="m332.804688 409.605469h17.066406c4.710937 0 8.53125-3.820313 8.53125-8.535157 0-4.710937-3.820313-8.53125-8.53125-8.53125h-17.066406c-4.714844 0-8.535157 3.820313-8.535157 8.53125 0 4.714844 3.820313 8.535157 8.535157 8.535157zm0 0"/><path d="m298.671875 443.738281h17.066406c4.710938 0 8.53125-3.820312 8.53125-8.535156 0-4.710937-3.820312-8.53125-8.53125-8.53125h-17.066406c-4.714844 0-8.535156 3.820313-8.535156 8.53125 0 4.714844 3.820312 8.535156 8.535156 8.535156zm0 0"/><path d="m366.9375 443.738281h17.066406c4.710938 0 8.53125-3.820312 8.53125-8.535156 0-4.710937-3.820312-8.53125-8.53125-8.53125h-17.066406c-4.714844 0-8.535156 3.820313-8.535156 8.53125 0 4.714844 3.820312 8.535156 8.535156 8.535156zm0 0"/><path d="m341.335938 460.804688h-17.066407c-4.710937 0-8.53125 3.820312-8.53125 8.535156 0 4.710937 3.820313 8.53125 8.53125 8.53125h17.066407c4.714843 0 8.535156-3.820313 8.535156-8.53125 0-4.714844-3.820313-8.535156-8.535156-8.535156zm0 0"/><path d="m409.605469 477.871094h17.066406c4.710937 0 8.53125-3.820313 8.53125-8.53125 0-4.714844-3.820313-8.535156-8.53125-8.535156h-17.066406c-4.714844 0-8.535157 3.820312-8.535157 8.535156 0 4.710937 3.820313 8.53125 8.535157 8.53125zm0 0"/><path d="m247.46875 349.871094h17.066406c4.714844 0 8.535156-3.820313 8.535156-8.53125 0-4.714844-3.820312-8.535156-8.535156-8.535156h-17.066406c-4.710938 0-8.53125 3.820312-8.53125 8.535156 0 4.710937 3.820312 8.53125 8.53125 8.53125zm0 0"/><path d="m247.46875 409.605469h17.066406c4.714844 0 8.535156-3.820313 8.535156-8.535157 0-4.710937-3.820312-8.53125-8.535156-8.53125h-17.066406c-4.710938 0-8.53125 3.820313-8.53125 8.53125 0 4.714844 3.820312 8.535157 8.53125 8.535157zm0 0"/><path d="m247.46875 477.871094h17.066406c4.714844 0 8.535156-3.820313 8.535156-8.53125 0-4.714844-3.820312-8.535156-8.535156-8.535156h-17.066406c-4.710938 0-8.53125 3.820312-8.53125 8.535156 0 4.710937 3.820312 8.53125 8.53125 8.53125zm0 0"/><path d="m511.894531 23.734375c.664063-6.617187-1.875-13.15625-6.828125-17.59375-7.605468-6.886719-18.773437-8.101563-27.683594-3.011719-10.800781 6.269532-26.160156 20.480469-41.8125 52.121094-10.230468-14.003906-33.3125-29.644531-85.699218-29.644531-32.335938-.046875-63.480469 12.171875-87.160156 34.191406-.910157.574219-1.703126 1.316406-2.339844 2.183594-55.464844 51.527343-76.253906 142.175781-80.859375 165.984375-.894531 4.625.269531 9.40625 3.183593 13.105468.066407.113282.117188.222657.195313.324219 1.066406 1.332031 2.339844 2.484375 3.769531 3.414063 5.59375 3.65625 12.851563 3.523437 18.304688-.332032 23.054687-16.484374 48.828125-28.785156 76.144531-36.335937.136719 0 .273437-.050781.410156-.09375 8.40625-2.0625 17.027344-3.152344 25.683594-3.242187 61.652344 0 131.535156 0 159.632813-28.101563 16.082031-18.171875 21.28125-43.523437 13.652343-66.558594-4.238281-15.429687-14.53125-28.488281-28.542969-36.214843 15.675782-12.339844 32.148438-23.636719 49.304688-33.820313 5.964844-3.441406 9.917969-9.527344 10.644531-16.375zm-87.785156 45.074219c-4.914063.417968-10.402344 1.109375-16.410156 2.125-5.285157-9.609375-12.476563-18.035156-21.136719-24.761719 24.03125 5.28125 33.699219 15.445313 37.546875 22.636719zm-21.648437 114.894531c-15.574219 1.984375-31.238282 3.160156-46.933594 3.515625 18.277344-41.113281 6.476562-69.691406-1.910156-82.773438 14.792968-5.855468 30.023437-10.53125 45.550781-13.988281 14.949219 29.035157 16.15625 63.226563 3.292969 93.246094zm-109.910157-124.886719c10.886719-6.6875 22.867188-11.402344 35.390625-13.933594 24.53125-1.988281 48.242188 9.347657 62.105469 29.6875-15.851563 3.863282-31.371094 8.960938-46.421875 15.246094-12.082031-16.867187-30.53125-28.066406-51.074219-31zm-21.460937 16.417969c21.402344-3.207031 42.921875 5 56.757812 21.640625-18.050781 8.632812-35.285156 18.875-51.492187 30.609375-10.109375-8.625-22.910157-13.453125-36.199219-13.652344 8.570312-14.171875 18.972656-27.148437 30.933594-38.597656zm1 117.625c-22.308594 6.523437-43.558594 16.230469-63.097656 28.816406 17.574218-26.296875 38.949218-49.84375 63.421874-69.878906 4.707032 13.300781 4.59375 27.835937-.324218 41.0625zm-41.566406-62.003906c11.164062-1.152344 22.398437 1.429687 31.941406 7.339843-21.996094 17.804688-41.652344 38.316407-58.515625 61.046876 6.570312-23.621094 15.46875-46.53125 26.574219-68.386719zm60.390624 58.078125c4.050782-15.980469 2.429688-32.871094-4.582031-47.789063 16.054688-11.613281 33.203125-21.636719 51.199219-29.933593 6.015625 8.234374 20.480469 34.707031-1.3125 76.382812-9.839844.144531-19.628906.144531-29.015625.144531-5.449219.023438-10.894531.421875-16.289063 1.195313zm173.304688-73.855469c5.742188 17.023437 2.183594 35.8125-9.386719 49.558594-9.355469 7.945312-20.648437 13.265625-32.726562 15.421875 9.976562-30.519532 7.988281-63.6875-5.5625-92.792969 5.871093-.941406 11.785156-1.582031 17.722656-1.925781 14.738281 3.566406 26.28125 15.023437 29.953125 29.738281zm28.285156-89.652344c-12.738281 7.59375-23.765625 14.933594-32.878906 21.394531 6.3125-11.621093 15.347656-21.539062 26.335938-28.894531.949218-.558593 2.03125-.851562 3.128906-.855469 1.636718-.011718 3.222656.578126 4.449218 1.664063.980469.789063 1.503907 2.015625 1.398438 3.269531-.21875 1.464844-1.121094 2.734375-2.433594 3.421875zm0 0"/><path d="m435.203125 366.9375c4.714844 0 8.535156-3.820312 8.535156-8.53125v-8.535156h8.53125c4.714844 0 8.535157-3.820313 8.535157-8.53125 0-4.714844-3.820313-8.535156-8.535157-8.535156h-8.53125v-8.535157c0-4.710937-3.820312-8.53125-8.535156-8.53125-4.710937 0-8.53125 3.820313-8.53125 8.53125v8.535157h-8.535156c-4.710938 0-8.53125 3.820312-8.53125 8.535156 0 4.710937 3.820312 8.53125 8.53125 8.53125h8.535156v8.535156c0 4.710938 3.820313 8.53125 8.53125 8.53125zm0 0"/><path d="m85.335938 281.605469c-4.710938 0-8.53125 3.820312-8.53125 8.53125v8.535156h-8.535157c-4.710937 0-8.53125 3.820313-8.53125 8.53125 0 4.714844 3.820313 8.535156 8.53125 8.535156h8.535157v8.53125c0 4.714844 3.820312 8.535157 8.53125 8.535157 4.714843 0 8.535156-3.820313 8.535156-8.535157v-8.53125h8.53125c4.714844 0 8.535156-3.820312 8.535156-8.535156 0-4.710937-3.820312-8.53125-8.535156-8.53125h-8.53125v-8.535156c0-4.710938-3.820313-8.53125-8.535156-8.53125zm0 0"/><path d="m170.671875 51.203125c4.710937 0 8.53125-3.820313 8.53125-8.53125v-8.535156h8.535156c4.710938 0 8.53125-3.820313 8.53125-8.53125 0-4.714844-3.820312-8.535157-8.53125-8.535157h-8.535156v-8.53125c0-4.714843-3.820313-8.53515575-8.53125-8.53515575-4.714844 0-8.535156 3.82031275-8.535156 8.53515575v8.53125h-8.53125c-4.714844 0-8.535157 3.820313-8.535157 8.535157 0 4.710937 3.820313 8.53125 8.535157 8.53125h8.53125v8.535156c0 4.710937 3.820312 8.53125 8.535156 8.53125zm0 0"/></svg>