<?xml version="1.0" encoding="iso-8859-1"?>
<!-- Generator: Adobe Illustrator 19.0.0, SVG Export Plug-In . SVG Version: 6.00 Build 0)  -->
<svg version="1.1" id="Capa_1" xmlns="http://www.w3.org/2000/svg" xmlns:xlink="http://www.w3.org/1999/xlink" x="0px" y="0px"
	 viewBox="0 0 502.08 502.08" style="enable-background:new 0 0 502.08 502.08;" xml:space="preserve">
<path style="fill:#48C397;" d="M123.04,132.32l-48,24l24,304l48,32l2.76-19.304c3.264-22.832,5.92-45.736,7.976-68.696l2.424-160
	C154.936,205.12,142.368,167.112,123.04,132.32z"/>
<path style="fill:#92E0C0;" d="M107.04,322.88v-5.384c0-22.072,1.928-44.104,5.768-65.848l9.44-53.504
	c5.768-32.696,3.296-66.32-7.208-97.824l24-88l-48,16l-16,64l-8.304,4.152C32.6,113.536,11.04,148.424,11.04,186.584
	c0,25.44,9.712,49.816,26.936,68.4l-2.936,4.024c-15.344,17.456-24,40.048-24,63.672c0,27.576,11.824,53.608,32.112,71.792
	l-0.112,1.848c0,42.144,29.088,78.712,70.16,88.192l33.84,7.808C120.736,439.712,107.04,381.696,107.04,322.88z"/>
<path style="fill:#FFEAA7;" d="M177.272,289.616l-1.176,3.52c-3.344,10.056-5.056,20.584-5.056,31.184l0,0
	c0,10.6,1.712,21.128,5.056,31.176l1.208,3.624c1.152,3.448,1.736,7.048,1.736,10.68v0.776c0,18.632-15.112,33.744-33.744,33.744
	l0,0c-13.496,0-25.704-8.048-31.016-20.456l-4.976-11.608c-6.776-15.792-10.264-32.8-10.264-49.984l0,0
	c0-19.696,4.584-39.128,13.4-56.744l1.088-2.184c5.832-11.656,17.744-19.024,30.784-19.024h0.312
	c19.008,0,34.416,15.408,34.416,34.416l0,0C179.04,282.432,178.44,286.112,177.272,289.616z"/>
<path style="fill:#FCD770;" d="M131.04,322.88v-5.384c0-22.072,1.928-44.104,5.768-65.848l1.176-6.672
	c-10.456,1.96-19.592,8.632-24.456,18.368l-1.088,2.184c-8.816,17.616-13.4,37.048-13.4,56.744c0,17.184,3.488,34.192,10.256,49.984
	l4.976,11.608c4.6,10.736,14.36,18.184,25.656,20C134.12,377.344,131.04,350.208,131.04,322.88z"/>
<path style="fill:#48C397;" d="M67.04,364.32c-23.032-32.8-32.488-67.648-32-104l-0.88-0.216
	c-14.768,17.304-23.12,39.432-23.12,62.576c0,27.576,11.824,53.608,32.112,71.792l-0.112,1.848c0,42.144,29.088,78.712,70.16,88.192
	l33.84,7.808C76.608,466,63.376,372.112,67.04,364.32z"/>
<path style="fill:#FFEAA7;" d="M232.336,414.088l3.52,1.176c10.056,3.344,20.584,5.056,31.184,5.056l0,0
	c10.6,0,21.128-1.712,31.176-5.056l3.624-1.208c3.448-1.152,7.048-1.736,10.68-1.736h0.776c18.632,0,33.744,15.112,33.744,33.744
	l0,0c0,13.496-8.048,25.704-20.456,31.016l-11.608,4.976c-15.792,6.776-32.8,10.264-49.984,10.264l0,0
	c-19.696,0-39.128-4.584-56.744-13.4l-2.184-1.088c-11.656-5.832-19.024-17.744-19.024-30.784v-0.312
	c0-19.008,15.408-34.416,34.416-34.416l0,0C225.152,412.32,228.832,412.92,232.336,414.088z"/>
<path style="fill:#FCD770;" d="M318.048,412.8c-6.896,9.632-11.008,21.432-11.008,34.248c0,12.432,3.968,24.08,10.856,33.768
	l8.688-3.728c12.408-5.32,20.456-17.52,20.456-31.024C347.04,429.056,334.416,415.128,318.048,412.8z"/>
<g>
	<path style="fill:#FFEAA7;" d="M304.336,334.088l3.52,1.176c10.056,3.344,20.584,5.056,31.184,5.056l0,0
		c10.6,0,21.128-1.712,31.176-5.056l3.624-1.208c3.448-1.152,7.048-1.736,10.68-1.736h0.776c18.632,0,33.744,15.112,33.744,33.744
		l0,0c0,13.496-8.048,25.704-20.456,31.016l-11.608,4.976c-15.792,6.776-32.8,10.264-49.984,10.264l0,0
		c-19.696,0-39.128-4.584-56.744-13.4l-2.184-1.088c-11.656-5.832-19.024-17.744-19.024-30.784v-0.312
		c0-19.008,15.408-34.416,34.416-34.416l0,0C297.152,332.32,300.832,332.92,304.336,334.088z"/>
	<path style="fill:#FFEAA7;" d="M376.336,414.088l3.52,1.176c10.056,3.344,20.584,5.056,31.184,5.056l0,0
		c10.6,0,21.128-1.712,31.176-5.056l3.624-1.208c3.448-1.152,7.048-1.736,10.68-1.736h0.776c18.632,0,33.744,15.112,33.744,33.744
		l0,0c0,13.496-8.048,25.704-20.456,31.016l-11.608,4.976c-15.792,6.776-32.8,10.264-49.984,10.264l0,0
		c-19.696,0-39.128-4.584-56.744-13.4l-2.184-1.088c-11.656-5.832-19.024-17.744-19.024-30.784v-0.312
		c0-19.008,15.408-34.416,34.416-34.416l0,0C369.152,412.32,372.832,412.92,376.336,414.088z"/>
</g>
<path d="M132.08,307.344c-0.688,5.6-1.04,11.32-1.04,16.976c0,5.672,0.352,11.384,1.048,16.984l15.872-1.968
	c-0.608-4.944-0.92-10-0.92-15.016c0-5.008,0.312-10.064,0.92-15.024L132.08,307.344z"/>
<path d="M456.52,404.32c-4.496,0-8.936,0.72-13.192,2.144l-3.64,1.208c-16.208,5.4-33.752,6.08-50.296,2.016
	c0.248-0.104,0.496-0.168,0.744-0.272l11.608-4.976c15.368-6.6,25.296-21.648,25.296-38.368c0-23.024-18.728-41.752-42.52-41.752
	c-4.496,0-8.936,0.72-13.192,2.144l-3.64,1.208c-18.512,6.168-38.776,6.176-57.304-0.008l-3.52-1.168
	c-4.32-1.44-8.832-2.176-13.408-2.176c-23.392,0-42.416,19.024-42.416,42.728c0,16.168,8.984,30.704,23.464,37.952l2.168,1.08
	c3.04,1.52,6.16,2.88,9.312,4.168c-15.744,3.352-32.256,2.544-47.592-2.576l-3.512-1.168c-4.336-1.448-8.848-2.184-13.424-2.184
	c-23.392,0-42.416,19.024-42.416,42.728c0,16.168,8.984,30.704,23.464,37.952l2.168,1.08c18.632,9.32,39.488,14.24,60.32,14.24
	c18.368,0,36.248-3.672,53.136-10.904l11.608-4.976c3.024-1.288,5.88-2.976,8.512-4.944c2.512,2.096,5.232,3.992,8.248,5.504
	l2.168,1.08c18.64,9.32,39.496,14.24,60.328,14.24c18.368,0,36.248-3.672,53.136-10.904l11.608-4.976
	c15.376-6.6,25.304-21.648,25.304-38.368C499.04,423.048,480.312,404.32,456.52,404.32z M281.648,390.68
	c-9.008-4.512-14.608-13.56-14.608-23.944c0-14.568,11.848-26.416,26.416-26.416c2.848,0,5.664,0.456,8.344,1.352l3.528,1.168
	c21.792,7.264,45.648,7.256,67.408,0.008l3.64-1.208c2.632-0.872,5.368-1.32,8.92-1.32c14.192,0,25.744,11.552,25.744,25.752
	c0,10.312-6.128,19.592-15.608,23.664l-11.608,4.976c-31.776,13.6-69.088,12.512-100.016-2.952L281.648,390.68z M311.832,474.712
	c-31.784,13.608-69.088,12.504-100.016-2.952l-2.168-1.08c-9.008-4.512-14.608-13.56-14.608-23.944
	c0-14.568,11.848-26.416,26.416-26.416c2.848,0,5.664,0.456,8.36,1.36l3.512,1.168c21.792,7.264,45.648,7.256,67.408,0.008
	l3.64-1.208c2.632-0.88,5.368-1.328,8.92-1.328c5.72,0,11.192,1.896,15.64,5.312c-3.648,6.304-5.896,13.552-5.896,21.416
	c0,7.176,1.856,13.984,5.096,20.024c-1.464,1.032-3.016,1.936-4.696,2.664L311.832,474.712z M467.432,469.736l-11.608,4.976
	c-31.784,13.608-69.088,12.504-100.016-2.952l-2.168-1.08c-9-4.512-14.6-13.56-14.6-23.944c0-14.568,11.848-26.416,26.416-26.416
	c2.848,0,5.664,0.456,8.344,1.352l3.528,1.168c21.792,7.264,45.648,7.256,67.408,0.008l3.64-1.208c2.632-0.872,5.368-1.32,8.92-1.32
	c14.192,0,25.744,11.552,25.744,25.752C483.04,456.384,476.912,465.664,467.432,469.736z"/>
<path d="M396.024,443.4l-1.968,15.872c5.6,0.696,11.312,1.048,16.984,1.048s11.384-0.352,16.984-1.048l-1.968-15.872
	C416.168,444.616,405.912,444.616,396.024,443.4z"/>
<path d="M356.024,379.272l-1.968-15.872c-9.888,1.216-20.144,1.216-30.032,0l-1.968,15.872c5.6,0.696,11.312,1.048,16.984,1.048
	S350.424,379.968,356.024,379.272z"/>
<path d="M252.024,443.4l-1.968,15.872c5.6,0.696,11.312,1.048,16.984,1.048s11.384-0.352,16.984-1.048l-1.968-15.872
	C272.168,444.616,261.912,444.616,252.024,443.4z"/>
<path d="M187.04,369.8c0-4.496-0.72-8.936-2.144-13.2l-1.208-3.624c-3.088-9.256-4.648-18.896-4.648-28.656s1.56-19.4,4.648-28.648
	l1.176-3.528c1.448-4.328,2.176-8.848,2.176-13.408c0-14.824-7.664-27.848-19.296-35.432l0.392-0.056
	c-5.424-40.296-18.16-78.752-37.84-114.32c-1.64-9.744-3.888-19.384-6.904-28.816L150.696,0L84.352,22.12L68.176,86.816
	l-5.008,2.504C26.072,107.856,3.04,145.128,3.04,186.584c0,25.424,8.664,49.512,24.584,68.896C11.8,274.288,3.04,298.04,3.04,322.68
	c0,28.504,11.824,55.584,32.064,75.112c0.664,45.504,31.816,84.248,76.296,94.512l42.336,9.776l3.992-27.928
	c3.184-22.28,5.808-44.92,7.848-67.336C178.312,399.6,187.04,385.952,187.04,369.8z M133.032,172.12
	c8.312,20.864,14.296,42.552,17.912,64.864c-2.176-0.336-4.36-0.664-6.632-0.664c-7.848,0-15.296,2.152-21.728,5.992l7.544-42.768
	C131.728,190.464,132.656,181.304,133.032,172.12z M52.512,411.776l9.872,7.056l9.304-13.016L56.08,394.664
	c-23.192-16.568-37.04-43.488-37.04-71.984c0-20.224,6.992-39.728,19.624-55.416l6.72,6.72l11.312-11.312L46.2,252.176
	c-17.512-17.52-27.16-40.808-27.16-65.592c0-35.36,19.648-67.144,51.28-82.952l11.592-5.808L97.736,34.52l29.656-9.88
	l-20.704,75.912l0.768,2.296c10.048,30.144,12.44,62.608,6.92,93.904l-9.44,53.504c-3.912,22.144-5.896,44.768-5.896,67.232v5.384
	c0,54.216,11.744,108.448,33.864,157.968L115,476.704C82.48,469.208,58.48,443.52,52.512,411.776z M142.944,463.648
	c-7.544-18.432-13.688-37.44-18.2-56.84c6.152,3.488,13.16,5.52,20.544,5.52c1.256,0,2.432-0.264,3.656-0.368
	C147.296,429.192,145.288,446.48,142.944,463.648z M168.512,358.032l1.208,3.616c0.872,2.632,1.32,5.376,1.32,8.92
	c0,14.2-11.552,25.752-25.744,25.752c-10.32,0-19.608-6.128-23.664-15.6l-2.856-6.672c-2.384-16.96-3.736-34.064-3.736-51.176
	v-5.384c0-14.696,0.952-29.448,2.704-44.08l0.496-1.184c0.432-1.056,0.848-2.104,1.352-3.12l1.096-2.184
	c4.504-9.008,13.552-14.6,23.936-14.6c14.568,0,26.416,11.848,26.416,26.416c0,2.84-0.456,5.656-1.352,8.352l-1.176,3.52
	c-3.632,10.888-5.472,22.224-5.472,33.712S164.88,347.144,168.512,358.032z"/>
<g>
</g>
<g>
</g>
<g>
</g>
<g>
</g>
<g>
</g>
<g>
</g>
<g>
</g>
<g>
</g>
<g>
</g>
<g>
</g>
<g>
</g>
<g>
</g>
<g>
</g>
<g>
</g>
<g>
</g>
</svg>
