<svg id="Capa_1" enable-background="new 0 0 511.981 511.981" height="512" viewBox="0 0 511.981 511.981" width="512" xmlns="http://www.w3.org/2000/svg"><g><g><path d="m481.442 55.017c-127.254-20.133-271.653-32.904-369.865 39.238-6.526 4.794-12.635 9.737-18.369 14.819-69.457 69.456-75.708 175.692-75.708 288.066 0 11.783 7.718 22.201 18.942 25.788 121.837 38.928 239.675 61.83 339.661-11.616 5.978-4.391 12.699-13.045 18.185-17.933 69.164-77.379 93.679-197.678 109.9-307.399 2.19-14.822-7.947-28.622-22.746-30.963z" fill="#c2e4a1"/><path d="m46.442 412.928c-11.224-3.586-18.942-14.004-18.942-25.788 0-112.374 2.985-207.071 65.708-278.066-82.125 72.774-85.708 174.785-85.708 298.066 0 11.783 7.718 22.201 18.942 25.788 121.837 38.928 230.675 67.83 330.661-5.616 13.665-10.038 26.006-21.427 37.185-33.933-5.486 4.888-11.207 9.542-17.185 13.933-99.986 73.446-208.824 44.545-330.661 5.616z" fill="#98ca91"/><path d="m331.86 74.194c-19.388 0-37.32 6.225-51.915 16.78-10.554 14.595-26.78 42.526-26.78 61.914 0 48.984 39.71 88.694 88.694 88.694 19.388 0 47.319-16.225 61.914-26.78 10.554-14.595 16.78-32.526 16.78-51.914.001-48.984-39.708-88.694-88.693-88.694z" fill="#ebb3b8"/><path d="m263.166 142.889c0-19.388 6.225-37.319 16.78-51.914-22.28 16.112-36.78 42.318-36.78 71.914 0 48.984 39.71 88.694 88.694 88.694 29.596 0 55.802-14.5 71.914-36.78-14.595 10.554-32.527 16.78-51.914 16.78-48.984 0-88.694-39.71-88.694-88.694z" fill="#e27f86"/><path d="m145.758 145.889c-15.251 0-29.42 4.631-41.179 12.562-7.931 11.759-22.562 35.928-22.562 51.179 0 40.726 33.015 73.74 73.74 73.74 15.251 0 39.419-14.631 51.179-22.562 7.931-11.759 12.562-25.928 12.562-41.179.001-40.726-33.014-73.74-73.74-73.74z" fill="#ffc250"/><path d="m92.018 199.629c0-15.251 4.631-29.419 12.562-41.179-19.643 13.247-32.562 35.704-32.562 61.179 0 40.726 33.015 73.74 73.74 73.74 25.475 0 47.931-12.919 61.179-32.562-11.759 7.931-25.928 12.562-41.179 12.562-40.725 0-73.74-33.015-73.74-73.74z" fill="#e69642"/><path d="m275.12 275.25c-15.251 0-29.419 4.631-41.179 12.562-7.931 11.759-22.562 35.928-22.562 51.179 0 40.726 33.015 73.74 73.74 73.74 15.251 0 39.419-14.631 51.179-22.562 7.931-11.759 12.562-25.928 12.562-41.179 0-40.725-33.014-73.74-73.74-73.74z" fill="#c1e4fa"/><path d="m221.38 328.99c0-15.251 4.631-29.419 12.562-41.179-19.643 13.247-32.562 35.704-32.562 61.179 0 40.726 33.015 73.74 73.74 73.74 25.475 0 47.931-12.919 61.179-32.562-11.76 7.931-25.928 12.562-41.179 12.562-40.726.001-73.74-33.014-73.74-73.74z" fill="#91b5f9"/></g><g><path d="m215.882 480.188c-5.371 0-10.801-.146-16.313-.438-56.716-3.005-115.336-20.483-175.409-39.678-14.451-4.617-24.16-17.852-24.16-32.932 0-67.174 1.112-127.102 14.78-180.228 15.336-59.609 44.683-103.683 92.356-138.702 3.339-2.451 8.033-1.734 10.485 1.604s1.733 8.032-1.604 10.484c-44.731 32.857-72.284 74.277-86.71 130.35-13.231 51.427-14.307 110.357-14.307 176.492 0 8.528 5.516 16.021 13.725 18.644 59.104 18.885 116.706 36.077 171.639 38.987 59.226 3.137 107.622-10.685 152.3-43.503 43.289-31.798 76.229-79.706 100.705-146.461 22.626-61.71 34.636-130.637 43.4-189.923 1.581-10.695-5.82-20.77-16.498-22.459-50.352-7.967-116.19-16.925-178.753-15.478-65.737 1.521-118.558 13.924-161.479 37.92-3.617 2.021-8.187.729-10.207-2.887s-.729-8.185 2.887-10.206c45.109-25.219 100.211-38.245 168.453-39.824 63.771-1.475 130.469 7.592 181.443 15.658 18.766 2.969 31.771 20.674 28.992 39.468-8.875 60.039-21.063 129.908-44.155 192.893-25.523 69.614-60.166 119.787-105.907 153.387-42.799 31.438-90.597 46.83-145.663 46.832zm59.238-49.957c-44.796 0-81.24-36.444-81.24-81.24s36.444-81.24 81.24-81.24c4.143 0 7.5 3.358 7.5 7.5s-3.357 7.5-7.5 7.5c-36.525 0-66.24 29.715-66.24 66.24s29.715 66.24 66.24 66.24 66.24-29.715 66.24-66.24c0-25.468-14.879-48.978-37.906-59.893-3.742-1.774-5.339-6.247-3.564-9.99 1.775-3.744 6.249-5.336 9.99-3.565 28.235 13.385 46.48 42.215 46.48 73.448 0 44.795-36.444 81.24-81.24 81.24zm-15.044-41.907c-1.979 0-3.879-.782-5.284-2.177-1.411-1.401-2.209-3.306-2.216-5.296 0 0-.083-23.081-.083-31.931 0-7.259-.047-31.749-.047-31.75-.004-1.991.784-3.903 2.191-5.313s3.317-2.202 5.309-2.202h18.032c19.864 0 33.211 15.807 33.211 39.334 0 22.38-13.689 38.863-32.552 39.193-5.135.089-17.988.139-18.533.141-.009.001-.018.001-.028.001zm7.384-63.668c.014 7.832.033 19.601.033 24.264 0 5.582.033 16.836.058 24.366 3.896-.024 8.347-.058 10.825-.102 8.866-.155 17.813-7.696 17.813-24.195 0-11.764-4.784-24.334-18.211-24.334h-10.518zm-121.702-23.787c-33.483 0-63.121-20.099-75.505-51.204-1.532-3.849.345-8.21 4.193-9.743 3.848-1.528 8.21.345 9.742 4.194 10.099 25.364 34.266 41.753 61.569 41.753 36.525 0 66.241-29.715 66.241-66.241 0-36.525-29.716-66.24-66.241-66.24s-66.24 29.715-66.24 66.24c0 4.142-3.357 7.5-7.5 7.5s-7.5-3.358-7.5-7.5c0-44.796 36.444-81.24 81.24-81.24 44.797 0 81.241 36.444 81.241 81.24.001 44.797-36.443 81.241-81.24 81.241zm186.102-41.786c-53.042 0-96.194-43.153-96.194-96.194s43.152-96.194 96.194-96.194c40.513 0 76.913 25.611 90.577 63.731 1.397 3.899-.631 8.193-4.53 9.591-3.898 1.398-8.192-.63-9.591-4.529-11.533-32.175-42.258-53.792-76.456-53.792-44.771 0-81.194 36.423-81.194 81.194s36.424 81.194 81.194 81.194 81.194-36.424 81.194-81.194c0-4.142 3.357-7.5 7.5-7.5s7.5 3.358 7.5 7.5c.001 53.04-43.152 96.193-96.194 96.193zm-160.201-6.148c-3.03 0-5.885-1.85-7.018-4.854l-4.249-11.258h-29.229l-4.296 11.279c-1.475 3.871-5.812 5.814-9.678 4.339-3.871-1.474-5.814-5.807-4.34-9.678l24.636-64.685c.021-.058.045-.115.067-.172 1.388-3.389 4.649-5.58 8.311-5.583h.008c3.658 0 6.92 2.185 8.312 5.569.027.067.055.136.08.205l24.412 64.688c1.463 3.875-.493 8.203-4.368 9.665-.872.33-1.768.485-2.648.485zm-34.783-31.112h17.855l-8.887-23.549zm242.886-16.63c-4.143 0-7.5-3.358-7.5-7.5v-21.484c0-4.142 3.357-7.5 7.5-7.5s7.5 3.358 7.5 7.5v21.484c0 4.142-3.358 7.5-7.5 7.5zm-69.925-2c-1.983 0-3.886-.785-5.291-2.185-1.414-1.407-2.209-3.32-2.209-5.315v-65.609c0-4.142 3.357-7.5 7.5-7.5h19.059c12.46 0 22.597 10.137 22.597 22.597 0 4.749-1.473 9.16-3.984 12.801 5.999 4.603 9.875 11.844 9.875 19.973 0 13.874-11.286 25.16-25.159 25.16-4.829 0-22.352.078-22.354.078-.012 0-.023 0-.034 0zm7.5-35.364v20.333c5.391-.021 12.158-.046 14.887-.046 5.602 0 10.159-4.558 10.159-10.16s-4.558-10.16-10.159-10.16c-2.09-.001-9.597.019-14.887.033zm0-30.245v15.233c4.044-.019 9.212-.04 11.559-.04 4.188 0 7.597-3.408 7.597-7.597s-3.408-7.597-7.597-7.597h-11.559z"/></g></g></svg>